<svg xmlns="http://www.w3.org/2000/svg" width="538.692" height="265.859" viewBox="0 0 538.692 265.859">
  <g id="Grupo_61" data-name="Grupo 61" transform="translate(-934.703 -716.832)">
    <path id="Caminho_23" data-name="Caminho 23" d="M68.891,4.81,57.58,16.747l-8.217,8.659h7.254V46.874c0,9.054,4.476,12.717,15.783,12.717a34.009,34.009,0,0,0,6.156-.549V50.22a29.112,29.112,0,0,1-3.625.173c-4.178,0-6.036-1.853-6.036-5.9V25.407h9.661V15.765H68.891Z" transform="translate(1122.943 735.175)" fill-rule="evenodd"/>
    <path id="Caminho_24" data-name="Caminho 24" d="M32.736,57.9a8.344,8.344,0,0,0,.347,2.383c2.927,9.949,9.7,14.238,18.089,14.238,11.263,0,19.22-7.167,19.22-24.789,0-17.434-7.961-24.794-19.22-24.794-8.977,0-15.615,4.318-18.166,14.354a8.413,8.413,0,0,0-.27,2.108ZM.52,131.759V4.492A2.214,2.214,0,0,1,2.744,2.273H28.818a2.214,2.214,0,0,1,2.166,1.738l1.752,7.942C39.533,4.213,49.237.338,61.463.338c24.067,0,42.117,15.307,42.117,49.39s-17.858,49.78-42.117,49.78c-12.034,0-21.93-3.875-28.726-11.817v44.072a2.214,2.214,0,0,1-2.224,2.214H2.739A2.214,2.214,0,0,1,.52,131.764Z" transform="translate(1369.815 848.714)" fill="#221f1f" fill-rule="evenodd"/>
    <path id="Caminho_25" data-name="Caminho 25" d="M83.091,176.278a8.7,8.7,0,0,0,.265,2.113c2.551,10.031,9.194,14.354,18.171,14.354,11.259,0,19.215-7.365,19.215-24.794,0-17.627-7.957-24.789-19.215-24.789-8.39,0-15.162,4.284-18.1,14.238a8.628,8.628,0,0,0-.337,2.378Zm-30-92.581H80.867a2.221,2.221,0,0,1,2.224,2.219v44.072c6.792-7.942,16.688-11.812,28.722-11.812,24.26,0,42.118,15.687,42.118,49.776s-18.05,49.39-42.118,49.39c-12.226,0-21.93-3.875-28.722-11.62l-1.752,7.942a2.224,2.224,0,0,1-2.171,1.738H53.094a2.214,2.214,0,0,1-2.224-2.214V85.915A2.214,2.214,0,0,1,53.094,83.7Zm108.49,0h27.773a2.214,2.214,0,0,1,2.219,2.219V213.182a2.219,2.219,0,0,1-2.219,2.224H161.583a2.219,2.219,0,0,1-2.224-2.219V85.92a2.222,2.222,0,0,1,2.224-2.224m41.145,36.414H230.5a2.214,2.214,0,0,1,2.219,2.214v90.863A2.22,2.22,0,0,1,230.5,215.4H202.724a2.219,2.219,0,0,1-2.219-2.214V122.329a2.221,2.221,0,0,1,2.224-2.219M200.5,105.886V85.915a2.214,2.214,0,0,1,2.224-2.214H230.5a2.214,2.214,0,0,1,2.219,2.214v19.971A2.22,2.22,0,0,1,230.5,108.1H202.724a2.219,2.219,0,0,1-2.219-2.214M170.724,12.679c5.5,0,9.049,3.673,9.29,9.564h-19c.4-5.776,4.245-9.564,9.7-9.564Zm20.857,17.064V26.157c0-14.123-7.764-22.474-20.9-22.474-13.256,0-21.42,8.953-21.42,23.441,0,14.44,8.756,22.994,22.344,22.994,10.912,0,17.834-5.247,19.615-13.636H180.259c-1.252,2.946-4.448,4.6-9.1,4.6-6.142,0-10.026-4.115-10.185-10.734v-.606Z" transform="translate(1128.69 730.877)" fill="#221f1f" fill-rule="evenodd"/>
    <path id="Caminho_26" data-name="Caminho 26" d="M84.961,60.38c0,4.717-4.3,8.332-10,8.332-4.26,0-7.254-2.1-7.254-5.555,0-3.326,2.575-5.218,7.846-5.6l9.405-.592Zm53.92-42.657H125.741L109.346,35.735V0H97.072l-.01,43.947a19.544,19.544,0,0,0-.847-3.971c-2.2-6.517-8.616-10.2-18.421-10.2-11.687,0-19.576,5.391-20.375,13.978h11.3c1.011-2.777,3.966-4.294,8.395-4.294,5.064,0,7.846,2.19,7.846,6.065V49.3L73.7,49.978c-11.552.674-18.012,5.559-18.012,13.978,0,8.505,6.286,13.978,15.23,13.978,1.685,0,3.543-.053,5.343-.135a26.794,26.794,0,0,0,15.273-7.288l5.535-5.843,12.221-13.608,1.483-1.646,14.074,14.739h15.119l-21.9-22.97Z" transform="translate(1147.055 716.832)" fill-rule="evenodd"/>
    <path id="Caminho_27" data-name="Caminho 27" d="M108.75,0C82.777,0,55.86,4.164,37.521,15.47,7.764,33.814-.933,69.621.077,102.593.958,131.1,8.6,161.731,28.9,182.79c19.369,20.091,59.2,29.121,86.353,29.121a2.469,2.469,0,0,1,2.522,2.522v28.784a4.99,4.99,0,0,0,5.044,5.049c.164,0,.318-.034.477-.048a4.958,4.958,0,0,0,2.768-1.122c13.685-11.706,27.374-23.615,40.577-35.87,12.659-11.754,26.989-23.826,36.885-37.891,20.89-29.68,23.985-71.633,17.059-106.415-6.662-33.463-30.406-55.253-63.7-62.189A243.239,243.239,0,0,0,108.75,0" transform="translate(934.703 734.425)" fill="#00c6d7" fill-rule="evenodd"/>
  </g>
</svg>
